<svg width="24" height="24" viewBox="0 0 24 24" fill="none" xmlns="http://www.w3.org/2000/svg">
<path d="M17.8826 19.2966C16.1235 20.4122 14.0827 21.003 11.9996 20.9996C6.60764 20.9996 2.12164 17.1196 1.18164 11.9996C1.61256 9.67132 2.78322 7.54428 4.51964 5.93455L1.39364 2.80755L2.80764 1.39355L22.6066 21.1916L21.1926 22.6066L17.8826 19.2966ZM5.93564 7.34955C4.57653 8.58521 3.62954 10.2083 3.22264 11.9996C3.53493 13.366 4.1619 14.6407 5.05364 15.7221C5.94538 16.8036 7.07727 17.6619 8.35919 18.2289C9.64112 18.7958 11.0377 19.0556 12.4377 18.9877C13.8378 18.9197 15.2026 18.5259 16.4236 17.8376L14.3956 15.8096C13.5323 16.3534 12.5098 16.5877 11.4959 16.474C10.4819 16.3603 9.53668 15.9055 8.81521 15.184C8.09374 14.4625 7.63887 13.5173 7.5252 12.5033C7.41154 11.4894 7.64582 10.4669 8.18964 9.60355L5.93564 7.34955ZM12.9136 14.3276L9.67164 11.0866C9.49371 11.5395 9.45183 12.0345 9.55115 12.5109C9.65046 12.9873 9.88666 13.4243 10.2308 13.7684C10.5749 14.1125 11.0119 14.3487 11.4883 14.448C11.9647 14.5474 12.4607 14.5055 12.9136 14.3276ZM20.8056 16.5926L19.3746 15.1616C20.0446 14.2095 20.5213 13.1352 20.7776 11.9996C20.5059 10.8092 19.9949 9.68649 19.2757 8.69975C18.5565 7.71302 17.6442 6.88285 16.5942 6.25971C15.5441 5.63658 14.3783 5.23349 13.1677 5.07497C11.957 4.91644 10.7267 5.00578 9.55164 5.33755L7.97364 3.75955C9.22064 3.26955 10.5796 2.99955 11.9996 2.99955C17.3916 2.99955 21.8776 6.87955 22.8186 11.9996C22.5123 13.6656 21.8225 15.2378 20.8056 16.5926ZM11.7226 7.50855C11.814 7.50255 11.9063 7.49955 11.9996 7.49955C12.6141 7.49947 13.222 7.62521 13.7859 7.86903C14.3499 8.11284 14.858 8.46956 15.2788 8.91721C15.6997 9.36486 16.0244 9.89395 16.233 10.4719C16.4416 11.0498 16.5296 11.6643 16.4916 12.2776L11.7226 7.50855Z" fill="#AFB6C2"/>
</svg>
